<svg xmlns="http://www.w3.org/2000/svg" viewBox="0 0 1000 303.46"><defs><style>.a{fill:#00cd92;}.b{fill:#1b2842;}.c{fill:#2fe0a7;}.d{fill:#768ea5;}.e{fill:none;}.f{fill:#72eebf;}</style></defs><path class="a" d="M970.26,167c0,25.95-21.4,28-28,28s-28-2-28-28V84.33h-29.8V167c0,34,23.75,57.77,57.76,57.77a65.72,65.72,0,0,0,16.54-2.09,55.39,55.39,0,0,0,14.46-37.3V167.16Z"/><path class="b" d="M621,34.93a17,17,0,1,0,17,17A16.81,16.81,0,0,0,621,34.93Z"/><path class="b" d="M550.64,167c0,25.95-21.4,28-28,28s-28-2-28-28V84.33h-29.8V167c0,34,23.75,57.77,57.77,57.77S580.44,201,580.44,167V84.33h-29.8Z"/><rect class="b" x="606.11" y="84.33" width="29.8" height="137.28"/><rect class="b" x="664.34" y="51.99" width="29.8" height="169.61"/><path class="b" d="M714,152.54a72.41,72.41,0,1,0,144.81,0V52H829v42.1a72.31,72.31,0,0,0-115,58.45Zm29.8,0a42.6,42.6,0,1,1,42.6,42.6A42.64,42.64,0,0,1,743.79,152.54Z"/><path class="b" d="M380.51,80.31a72,72,0,0,0-47.7,13.78V52H303V221.85h19a10.77,10.77,0,0,0,10.77-10.77h0a72.4,72.4,0,0,0,114.88-62.92C445.57,112.18,416.46,82.8,380.51,80.31Zm-5.1,114.83a42.6,42.6,0,1,1,42.6-42.6A42.65,42.65,0,0,1,375.41,195.14Z"/><path class="c" d="M970.19,185.35A55.56,55.56,0,0,1,864.48,209.4a98.16,98.16,0,0,1-22.15,21.67A85.44,85.44,0,0,0,1000,185.35v-101H970.19Z"/><path class="d" d="M320.93,265.81a7.76,7.76,0,0,0,3.9-6.89,8.9,8.9,0,0,0-9-8.8H303v31.93h13.55a8.93,8.93,0,0,0,9.07-8.76A8,8,0,0,0,320.93,265.81Zm.43,7.3a5,5,0,0,1-5,5h-9.19V268h8.66C319.18,268,321.36,270,321.36,273.11Zm-14.22-9v-10h8.44a5,5,0,0,1,5,5,4.92,4.92,0,0,1-5,5Z"/><path class="d" d="M354.47,271.16a7.73,7.73,0,0,1-15.46,0v-21h-4.18V271a11.69,11.69,0,0,0,11.91,11.73A11.54,11.54,0,0,0,358.61,271V250.12h-4.14Z"/><rect class="d" x="369.58" y="250.16" width="4.18" height="31.89"/><polygon class="d" points="389.41 250.12 385.32 250.12 385.32 282.09 403.69 282.09 403.69 278.09 389.41 278.09 389.41 250.12"/><path class="d" d="M421.92,250.12h-10v31.93h10a16,16,0,1,0,0-31.93Zm0,28h-5.87v-24h5.87a12,12,0,0,1,0,24Z"/><rect class="d" x="447.33" y="250.16" width="4.18" height="31.89"/><path class="d" d="M483.2,275.36a15.84,15.84,0,0,0-1-1.76l-14.9-23.48h-4.25v31.93h4.13V257.14c.19.35.39.71.62,1.08L483,282.05h4.43V250.21H483.2Z"/><path class="d" d="M515.11,268.13h7.27v7.1a11.78,11.78,0,0,1-9,3.53,12.7,12.7,0,0,1,0-25.39,12.71,12.71,0,0,1,9.6,4.11l.25.24,2.67-2.73-.21-.24a16.67,16.67,0,1,0-12.31,28,16.81,16.81,0,0,0,13.08-6.15l.07-.09v-12.3H515.11Z"/><polygon class="d" points="550.48 282.05 570.88 282.05 570.88 278.09 554.61 278.09 554.61 268.04 568.36 268.04 568.36 264.08 554.61 264.08 554.61 254.07 570.88 254.07 570.88 250.12 550.48 250.12 550.48 282.05"/><polygon class="d" points="580.18 282.05 584.31 282.05 584.31 268.04 598.14 268.04 598.14 264.08 584.31 264.08 584.31 254.07 600.63 254.07 600.63 250.12 580.18 250.12 580.18 282.05"/><polygon class="d" points="609.12 282.05 613.26 282.05 613.26 268.04 627.09 268.04 627.09 264.08 613.26 264.08 613.26 254.07 629.57 254.07 629.57 250.12 609.12 250.12 609.12 282.05"/><rect class="d" x="638.07" y="250.16" width="4.18" height="31.89"/><path class="d" d="M668.33,253.5a13.13,13.13,0,0,1,9.25,3.71l.25.25,2.54-2.75-.23-.23a16.61,16.61,0,1,0-11.81,28.23,16.31,16.31,0,0,0,11.59-4.84l.23-.23-2.63-2.79-.25.24a12.67,12.67,0,0,1-8.94,3.58c-7,0-12.34-5.46-12.34-12.7A12.27,12.27,0,0,1,668.33,253.5Z"/><rect class="d" x="688.73" y="250.16" width="4.18" height="31.89"/><polygon class="d" points="704.47 282.05 724.87 282.05 724.87 278.09 708.6 278.09 708.6 268.04 722.35 268.04 722.35 264.08 708.6 264.08 708.6 254.07 724.87 254.07 724.87 250.12 704.47 250.12 704.47 282.05"/><path class="d" d="M754.29,275.36a15.77,15.77,0,0,0-1-1.76l-14.91-23.48h-4.24v31.93h4.13V257.14c.19.35.39.71.62,1.08l15.13,23.83h4.42V250.21h-4.18Z"/><path class="d" d="M784.55,253.5a13.11,13.11,0,0,1,9.25,3.71l.25.25,2.54-2.75-.22-.23a16.61,16.61,0,1,0-11.82,28.23,16.31,16.31,0,0,0,11.59-4.84l.23-.23-2.63-2.79-.25.24a12.65,12.65,0,0,1-8.94,3.58c-7,0-12.34-5.46-12.34-12.7A12.27,12.27,0,0,1,784.55,253.5Z"/><path class="d" d="M823.28,250.12l-8.35,14.27-.17.32a3.53,3.53,0,0,0-.17-.33l-8.35-14.26h-4.73l11.16,19.14v12.79h4.18V269.26L828,250.12Z"/><path class="e" d="M95.53,236.33l19,19A52.58,52.58,0,0,0,188.91,181l-6.12-6.12-37.18,37.18A84.8,84.8,0,0,1,95.53,236.33Z"/><path class="e" d="M122.46,188.91l37.18-37.18-37.18-37.18a52.58,52.58,0,1,0,0,74.36Z"/><path class="e" d="M182.79,128.58l6.12-6.12A52.58,52.58,0,0,0,114.55,48.1l-19,19A84.73,84.73,0,0,1,145.61,91.4Z"/><path class="f" d="M92.85,70.22l21.7-22.12a52.58,52.58,0,0,1,74.36,74.36l-9,9L203,154.64l9-9A85.32,85.32,0,0,0,91.4,25L25,91.4Z"/><path class="a" d="M203,148.82,179.89,172l9,9a52.58,52.58,0,0,1-74.36,74.36L89.71,230.52,25,212.06,91.4,278.51A85.32,85.32,0,1,0,212.06,157.85Z"/><path class="c" d="M182.79,128.58,145.61,91.4A85.32,85.32,0,1,0,85.28,237a85.79,85.79,0,0,0,10.25-.69,84.8,84.8,0,0,0,50.08-24.27l37.18-37.18L206,151.73Zm-60.33,60.33a52.55,52.55,0,1,1,0-74.36l37.18,37.18Z"/></svg>